<svg width="150" height="109" viewBox="0 0 150 109" fill="none" xmlns="http://www.w3.org/2000/svg">
<path d="M0 20.4375C0 16.6757 4.79799 13.625 10.7143 13.625H139.286C145.212 13.625 150 16.6757 150 20.4375C150 24.2057 145.212 27.25 139.286 27.25H10.7143C4.79799 27.25 0 24.2057 0 20.4375ZM0 54.5C0 50.7318 4.79799 47.6875 10.7143 47.6875H139.286C145.212 47.6875 150 50.7318 150 54.5C150 58.2682 145.212 61.3125 139.286 61.3125H10.7143C4.79799 61.3125 0 58.2682 0 54.5ZM139.286 95.375H10.7143C4.79799 95.375 0 92.3307 0 88.5625C0 84.7943 4.79799 81.75 10.7143 81.75H139.286C145.212 81.75 150 84.7943 150 88.5625C150 92.3307 145.212 95.375 139.286 95.375Z" fill="white"/>
</svg>
